<?xml version="1.0" encoding="UTF-8"?><svg id="Layer_1" xmlns="http://www.w3.org/2000/svg" viewBox="0 0 1062.4 387.04"><path d="M223.91,235.31h-14.82c-.6,0-1.09,.49-1.09,1.09v46.32l-27.68-46.86c-.16-.27-.6-.54-.87-.54h-8.12c-2.34,.16-4.41,1.09-6.1,2.78-1.69,1.69-2.51,3.71-2.51,6.1v65.28c0,.6,.44,1.04,1.04,1.04h14.82c.6,0,1.09-.44,1.09-1.04v-46.42l27.9,46.92c.16,.27,.6,.54,.87,.54h15.47c.6,0,1.04-.44,1.04-1.04v-73.07c0-.6-.44-1.09-1.04-1.09Z" style="fill:#00aeef;"/><path d="M311.8,235.53h-50.4c-2.4,0-4.47,.87-6.16,2.56-1.69,1.69-2.56,3.76-2.56,6.1v5.34c0,.6,.49,1.04,1.09,1.04h20.54v58.9c0,.6,.44,1.04,1.04,1.04h15.04c.6,0,1.09-.44,1.09-1.04v-58.9h20.32c.6,0,1.04-.44,1.04-1.04v-12.97c0-.6-.44-1.04-1.04-1.04Z" style="fill:#00aeef;"/><path d="M423.5,310.51h50.62c.6,0,1.04-.44,1.04-1.04v-13.57c0-.6-.44-1.09-1.04-1.09h-34.55v-58.25c0-.6-.44-1.04-1.04-1.04h-7.41c-2.4,0-4.47,.87-6.16,2.56-1.69,1.69-2.56,3.76-2.56,6.1v65.28c0,.6,.49,1.04,1.09,1.04Z" style="fill:#00aeef;"/><path d="M503.05,310.51h50.62c.6,0,1.04-.44,1.04-1.04v-13.57c0-.6-.44-1.09-1.04-1.09h-34.55v-58.25c0-.6-.44-1.04-1.04-1.04h-7.41c-2.4,0-4.47,.87-6.16,2.56-1.69,1.69-2.56,3.76-2.56,6.1v65.28c0,.6,.49,1.04,1.09,1.04Z" style="fill:#00aeef;"/><path d="M597.38,235.53h-7.41c-2.4,0-4.47,.87-6.16,2.56s-2.51,3.71-2.51,6.1v65.28c0,.6,.44,1.04,1.04,1.04h15.04c.6,0,1.04-.44,1.04-1.04v-72.91c0-.6-.44-1.04-1.04-1.04Z" style="fill:#00aeef;"/><path d="M689.95,268.77h-30.24c-.6,0-1.09,.49-1.09,1.09v4.85c0,2.4,.87,4.47,2.56,6.16,1.69,1.69,3.71,2.51,6.1,2.51h7.63c-.87,4.09-2.72,7.46-5.34,9.81-2.89,2.51-6.65,3.76-11.17,3.76-6.1,0-10.84-2.07-14.17-6.16-3.54-4.41-5.29-10.41-5.29-17.98s1.69-13.51,5.07-17.98v.05c3.32-4.14,7.85-6.21,13.57-6.21,4.47,0,8.01,.93,10.62,2.78h-.05c1.8,1.31,3.05,2.78,3.98,4.3l-.05-.05c1.63,3.11,4.14,4.63,7.52,4.63h10.19c.65,0,1.2-.54,1.04-1.25-1.14-7.74-4.74-14-10.79-18.85-6.1-4.52-13.79-6.81-23.1-6.81-10.73,0-19.4,3.6-25.99,10.95-6.27,7.03-9.37,16.51-9.37,28.44s3.21,21.74,9.59,28.66c6.27,7.14,14.77,10.73,25.56,10.73,4.52,0,8.66-.82,12.48-2.45,3.11-1.47,5.83-3.71,8.17-6.54l.16,.6c1.09,4.47,3.92,6.7,8.45,6.7h3.98c.6,0,1.09-.44,1.09-1.04v-39.61c0-.6-.49-1.09-1.09-1.09Z" style="fill:#00aeef;"/><path d="M863.55,309.47v-73.07c0-.6-.44-1.09-1.04-1.09h-14.82c-.6,0-1.09,.49-1.09,1.09v46.32l-27.68-46.86c-.16-.27-.6-.54-.87-.54h-8.12c-2.34,.16-4.41,1.09-6.1,2.78s-2.51,3.71-2.51,6.1v65.28c0,.6,.44,1.04,1.04,1.04h14.82c.6,0,1.09-.44,1.09-1.04v-46.42l27.9,46.92c.16,.27,.6,.54,.87,.54h15.47c.6,0,1.04-.44,1.04-1.04Z" style="fill:#00aeef;"/><path d="M933.03,309.74l24.79-72.85c.27-.71-.22-1.36-1.04-1.36h-10.79c-4.41,0-7.19,2.13-8.23,6.32v-.05l-13.19,45.33-14.44-50.78c-.16-.44-.6-.82-.98-.82h-16.73c-.82,0-1.31,.71-1.04,1.42l25.23,72.85c.16,.38,.6,.71,.98,.71h14.39c.38,0,.87-.38,1.04-.76Z" style="fill:#00aeef;"/><path d="M505.04,106.96c.02-.14,.03-.29,.06-.43-.03,.14-.04,.28-.06,.43Z" style="fill:#00aeef;"/><path d="M506.17,104.39c.1-.12,.2-.25,.31-.36-.11,.11-.21,.24-.31,.36Z" style="fill:#00aeef;"/><path d="M509.97,112.61c-2.4,0-4.51-1.73-4.92-4.17-.05-.31-.07-.61-.06-.92,0,.03,0,.05,0,.08v94.96c0,2.76,2.24,5,5,5s5-2.24,5-5V111.83l-4.17,.7c-.28,.05-.56,.07-.84,.07Z" style="fill:#00aeef;"/><path d="M507.64,103.21c.15-.08,.3-.17,.46-.23-.16,.07-.31,.15-.46,.23Z" style="fill:#00aeef;"/><path d="M508.51,102.85c.18-.06,.36-.12,.55-.15-.19,.04-.37,.1-.55,.15Z" style="fill:#00aeef;"/><path d="M505.62,105.19c.08-.14,.15-.29,.24-.43-.09,.13-.16,.28-.24,.43Z" style="fill:#00aeef;"/><path d="M506.86,103.72c.12-.1,.24-.2,.37-.29-.13,.09-.25,.19-.37,.29Z" style="fill:#00aeef;"/><path d="M505.25,106.04c.05-.15,.09-.3,.15-.44-.06,.14-.1,.29-.15,.44Z" style="fill:#00aeef;"/><path d="M1061.58,12.24c.09,.14,.16,.29,.23,.43-.08-.15-.15-.3-.23-.43Z" style="fill:#00aeef;"/><path d="M1062.03,13.11c.05,.13,.09,.28,.13,.42-.04-.14-.08-.28-.13-.42Z" style="fill:#00aeef;"/><path d="M1060.97,11.49c.13,.13,.23,.28,.34,.42-.11-.14-.22-.29-.34-.42Z" style="fill:#00aeef;"/><path d="M1057.49,10c.19,0,.37,.03,.56,.06-.19-.02-.37-.05-.56-.06Z" style="fill:#00aeef;"/><path d="M1060.24,10.88c.15,.1,.28,.23,.42,.35-.14-.12-.27-.24-.42-.35Z" style="fill:#00aeef;"/><path d="M1062.33,14.16s-.02-.05-.02-.08c.03,.16,.04,.33,.05,.49-.01-.14,0-.27-.03-.41Z" style="fill:#00aeef;"/><path d="M1058.48,10.11c.18,.04,.34,.1,.51,.16-.17-.06-.33-.12-.51-.16Z" style="fill:#00aeef;"/><path d="M1059.41,10.41c.16,.07,.31,.16,.46,.25-.15-.09-.3-.18-.46-.25Z" style="fill:#00aeef;"/><path d="M1052.4,14.99c0-2.61,2.01-4.74,4.57-4.96-.14,.01-.27,0-.41,.03L509.14,102.68s-.05,.02-.08,.02c-.19,.04-.37,.1-.55,.15-.14,.04-.28,.07-.41,.13-.16,.07-.31,.15-.46,.23-.14,.07-.28,.14-.41,.22-.13,.09-.25,.19-.37,.29-.13,.1-.26,.2-.38,.31-.11,.11-.21,.24-.31,.36-.1,.12-.21,.24-.3,.37-.09,.13-.17,.28-.24,.43-.08,.14-.16,.27-.22,.41-.06,.14-.1,.29-.15,.44-.05,.16-.11,.32-.15,.49-.03,.14-.04,.28-.06,.43-.02,.19-.05,.37-.06,.57,0,.3,0,.61,.06,.92,.41,2.44,2.53,4.17,4.92,4.17,.28,0,.56-.02,.84-.07l4.17-.7L1052.4,20.91v-5.92Z" style="fill:#00aeef;"/><path d="M1062.36,14.57c-.01-.16-.02-.33-.05-.49-.03-.19-.09-.37-.15-.55-.04-.14-.08-.28-.13-.42-.06-.15-.14-.29-.22-.44-.08-.15-.14-.3-.23-.43-.08-.12-.17-.22-.26-.33-.11-.14-.22-.29-.34-.42-.1-.1-.21-.18-.31-.27-.14-.12-.27-.24-.42-.35-.12-.08-.25-.14-.38-.22-.15-.09-.3-.18-.46-.25-.13-.06-.28-.1-.42-.14-.17-.06-.33-.12-.51-.16-.14-.03-.29-.04-.43-.06-.19-.02-.37-.05-.56-.06-.03,0-.06,0-.09,0-.15,0-.28,.03-.43,.04-2.56,.22-4.57,2.34-4.57,4.96V356.01h5c2.76,0,5,2.24,5,5V14.99c0-.14-.03-.28-.04-.42Z" style="fill:#00aeef;"/><path d="M1057.4,356.01h-125.72c-2.76,0-5,2.24-5,5s2.24,5,5,5h125.72c2.76,0,5-2.24,5-5s-2.24-5-5-5Z" style="fill:#00aeef;"/><path d="M71.81,21.31c-1.73-.97-3.61-1.43-5.47-1.43-3.95,0-7.78,2.08-9.84,5.76-3.03,5.42-1.08,12.28,4.33,15.31l52.37,30.89v-5.39c0-4.54,2.44-8.79,6.36-11.08l4.78-2.78-51.78-30.82c-.26-.17-.5-.32-.75-.46Z" style="fill:#00aeef;"/><path d="M113.2,71.85l-52.37-30.89c-5.42-3.03-7.36-9.89-4.33-15.31,2.06-3.68,5.89-5.76,9.84-5.76,1.86,0,3.74,.46,5.47,1.43,.25,.14,.49,.29,.75,.46l51.78,30.82,.99-.58-52.24-31.09c-.26-.17-.52-.33-.79-.48-2.86-1.6-6.16-1.98-9.31-1.09-3.15,.89-5.76,2.96-7.36,5.81-3.29,5.9-1.18,13.38,4.71,16.66l52.87,31.19v-1.16Z" style="fill:#00aeef;"/><path d="M16.66,43.45c-3.89,0-7.69,2.02-9.77,5.63-3.1,5.38-1.25,12.27,4.13,15.38l102.18,59.1v-25.95S22.27,44.96,22.27,44.96c-1.77-1.02-3.7-1.5-5.61-1.5Z" style="fill:#00aeef;"/><path d="M113.2,123.55L11.02,64.46c-5.38-3.1-7.23-10-4.13-15.38,2.08-3.61,5.88-5.63,9.77-5.63,1.91,0,3.84,.48,5.61,1.5l90.93,52.65v-1.16S22.77,44.09,22.77,44.09c-5.85-3.38-13.36-1.36-16.74,4.49-3.38,5.85-1.36,13.36,4.49,16.74l102.68,59.39v-1.16Z" style="fill:#00aeef;"/><path d="M239.73,64.46c5.36-3.12,7.24-10.04,4.21-15.45-3.15-5.05-9.74-6.82-15-4.04l-92.39,52.75v-25.43l53.36-31.48c5.12-3.18,6.77-9.76,3.74-14.99-2.13-3.33-5.76-5.18-9.48-5.18-1.87,0-3.77,.47-5.51,1.45l-58.59,34.15c-3.61,2.12-5.86,6.04-5.86,10.22v227.8c-.72,6.22,3.71,11.81,9.88,12.53,2.98,.35,5.93-.49,8.28-2.36,2.36-1.87,3.84-4.54,4.19-7.52,.1-.86,.1-1.73,0-2.59V123.82s.25-.14,.25-.14l102.93-59.22Z" style="fill:#00aeef;"/><path d="M137.54,124.4l102.68-59.08c5.83-3.39,7.88-10.94,4.57-16.81v-.02c-3.44-5.5-10.61-7.43-16.35-4.4l-90.9,51.9v-23.14l52.88-31.2c5.59-3.47,7.39-10.65,4.07-16.36-3.5-5.48-10.67-7.27-16.34-4.08l-52.83,30.79-.99,.58-4.78,2.78c-3.91,2.3-6.35,6.55-6.36,11.08v5.39s0,1.16,0,1.16v23.44s0,1.16,0,1.16v25.95s0,1.16,0,1.16v169.49c-.37,3.25,.54,6.45,2.57,9.02,2.03,2.56,4.94,4.18,8.19,4.56,.48,.06,.96,.08,1.44,.08,2.75,0,5.4-.92,7.58-2.65,2.56-2.03,4.19-4.94,4.56-8.19,.11-.94,.11-1.89,0-2.77V124.4Zm-1,169.91c.1,.86,.1,1.73,0,2.59-.35,2.99-1.83,5.66-4.19,7.52-2.36,1.87-5.3,2.7-8.28,2.36-6.16-.71-10.59-6.31-9.88-12.53V66.46c0-4.19,2.25-8.1,5.86-10.22l58.59-34.15c1.74-.98,3.64-1.45,5.51-1.45,3.72,0,7.35,1.84,9.48,5.18,3.03,5.22,1.38,11.81-3.74,14.99l-53.36,31.48v25.43l92.39-52.75c5.27-2.78,11.85-1,15,4.04,3.04,5.4,1.15,12.33-4.21,15.45l-102.93,59.22-.25,.14v170.49Z" style="fill:#00aeef;"/><path d="M112.79,13.66c0,6.98,5.68,12.66,12.66,12.66s12.66-5.68,12.66-12.66-5.68-12.66-12.66-12.66-12.66,5.68-12.66,12.66Z" style="fill:#00aeef;"/><path d="M125.45,27.32c7.53,0,13.66-6.13,13.66-13.66S132.98,0,125.45,0s-13.66,6.13-13.66,13.66,6.13,13.66,13.66,13.66Zm12.66-13.66c0,6.98-5.68,12.66-12.66,12.66s-12.66-5.68-12.66-12.66,5.68-12.66,12.66-12.66,12.66,5.68,12.66,12.66Z" style="fill:#00aeef;"/><path d="M85.57,135.21h0s-28.83-15.98-28.83-15.98c-5.23-2.93-11.95-1.12-14.99,4.05-2.87,5.28-1.09,11.86,4.06,14.99l22.96,13.14v37.81l-50.88-29.26c-1.77-1.02-3.7-1.5-5.61-1.5-3.9,0-7.69,2.02-9.77,5.63-3.1,5.38-1.25,12.27,4.13,15.38l67.68,39.01c1.74,.93,3.73,1.45,5.72,1.5,1.92-.04,3.84-.56,5.54-1.5,3.53-1.97,5.72-5.7,5.7-9.75v-63.92c0-4-2.18-7.67-5.69-9.59Z" style="fill:#00aeef;"/><path d="M86.05,134.33l-28.82-15.98c-5.7-3.2-13.03-1.22-16.35,4.43-3.14,5.76-1.2,12.93,4.42,16.34l22.47,12.86v35.51l-49.38-28.4c-5.86-3.38-13.37-1.36-16.74,4.49-3.38,5.85-1.36,13.37,4.49,16.74l67.7,39.02c1.9,1.01,4.03,1.57,6.2,1.62,2.11-.04,4.19-.6,6.03-1.63,3.85-2.14,6.23-6.21,6.21-10.62v-63.92c0-4.36-2.38-8.37-6.21-10.46Zm5.21,74.39c.02,4.04-2.16,7.78-5.7,9.75-1.7,.95-3.62,1.47-5.54,1.5-1.99-.05-3.97-.57-5.72-1.5L6.63,179.46c-5.38-3.1-7.23-10-4.13-15.38,2.08-3.61,5.87-5.63,9.77-5.63,1.91,0,3.84,.48,5.61,1.5l50.88,29.26v-37.81l-22.96-13.14c-5.15-3.12-6.93-9.71-4.06-14.99,3.04-5.17,9.77-6.98,14.99-4.05l28.83,15.98h0c3.51,1.92,5.69,5.59,5.69,9.59v63.92Z" style="fill:#00aeef;"/><path d="M19.7,122.99c6.98,0,12.66-5.68,12.66-12.66s-5.68-12.66-12.66-12.66-12.66,5.68-12.66,12.66,5.68,12.66,12.66,12.66Z" style="fill:#00aeef;"/><path d="M33.36,110.33c0-7.53-6.13-13.66-13.66-13.66s-13.66,6.13-13.66,13.66,6.13,13.66,13.66,13.66,13.66-6.13,13.66-13.66Zm-13.66-12.66c6.98,0,12.66,5.68,12.66,12.66s-5.68,12.66-12.66,12.66-12.66-5.68-12.66-12.66,5.68-12.66,12.66-12.66Z" style="fill:#00aeef;"/><path d="M232.39,159.48l-50.88,29.26v-37.82l22.97-13.15c5.14-3.12,6.92-9.7,4.04-14.99-3.03-5.15-9.76-6.97-14.98-4.03l-28.83,16.45c-3.52,1.92-5.7,5.6-5.7,9.59v63.45c-.02,4.05,2.16,7.78,5.7,9.75,1.7,.95,3.62,1.47,5.56,1.5,1.97-.05,3.95-.58,5.71-1.51l67.67-39c2.6-1.5,4.47-3.93,5.25-6.83s.38-5.94-1.12-8.54c-3.1-5.38-10-7.23-15.38-4.13Z" style="fill:#00aeef;"/><path d="M231.89,158.62l-49.39,28.4v-35.51l22.48-12.87c5.61-3.4,7.55-10.57,4.4-16.35-3.31-5.63-10.65-7.61-16.34-4.41l-28.82,16.45c-3.83,2.09-6.21,6.1-6.21,10.47v63.45c-.02,4.41,2.36,8.48,6.21,10.62,1.84,1.03,3.92,1.59,6.05,1.63,2.14-.06,4.28-.62,6.19-1.63l67.68-39.01c5.85-3.38,7.87-10.89,4.49-16.74-3.38-5.85-10.89-7.87-16.74-4.49Zm17,13.53c-.78,2.9-2.64,5.33-5.25,6.83l-67.67,39c-1.76,.93-3.74,1.46-5.71,1.51-1.94-.04-3.87-.56-5.56-1.5-3.53-1.97-5.72-5.7-5.7-9.75v-63.45c0-4,2.19-7.67,5.7-9.59l28.83-16.45c5.23-2.93,11.95-1.12,14.98,4.03,2.88,5.29,1.1,11.88-4.04,14.99l-22.97,13.15v37.82l50.88-29.26c5.38-3.1,12.27-1.25,15.38,4.13,1.5,2.6,1.9,5.64,1.12,8.54Z" style="fill:#00aeef;"/><path d="M243.55,110.33c0-6.98-5.68-12.66-12.66-12.66s-12.66,5.68-12.66,12.66,5.68,12.66,12.66,12.66,12.66-5.68,12.66-12.66Z" style="fill:#00aeef;"/><path d="M230.89,96.67c-7.53,0-13.66,6.13-13.66,13.66s6.13,13.66,13.66,13.66,13.66-6.13,13.66-13.66-6.13-13.66-13.66-13.66Zm-12.66,13.66c0-6.98,5.68-12.66,12.66-12.66s12.66,5.68,12.66,12.66-5.68,12.66-12.66,12.66-12.66-5.68-12.66-12.66Z" style="fill:#00aeef;"/><g><path d="M736.05,250.13h37.05c.6,0,1.04-.44,1.04-1.04v-12.53c0-.6-.44-1.04-1.04-1.04h-45.33c-2.4,0-4.47,.87-6.16,2.56s-2.51,3.71-2.51,6.1v5.94h16.95Z" style="fill:#00aeef;"/><g><path d="M731.73,278.3h23.99c2.45,0,4.47-.82,6.16-2.51,1.69-1.69,2.51-3.76,2.51-6.16v-4.9c0-.6-.44-1.04-1.04-1.04h-44.25v14.6h12.63Z" style="fill:#00aeef;"/><path d="M759.03,294.81h-39.93v14.66c0,.6,.44,1.04,1.04,1.04h52.96c.6,0,1.04-.44,1.04-1.04v-13.57c0-.6-.44-1.09-1.04-1.09h-14.07Z" style="fill:#00aeef;"/></g></g><g><path d="M357.33,250.13h37.05c.6,0,1.04-.44,1.04-1.04v-12.53c0-.6-.44-1.04-1.04-1.04h-45.33c-2.4,0-4.47,.87-6.16,2.56s-2.51,3.71-2.51,6.1v5.94h16.95Z" style="fill:#00aeef;"/><g><path d="M353.01,278.3h23.99c2.45,0,4.47-.82,6.16-2.51,1.69-1.69,2.51-3.76,2.51-6.16v-4.9c0-.6-.44-1.04-1.04-1.04h-44.25v14.6h12.63Z" style="fill:#00aeef;"/><path d="M380.31,294.81h-39.93v14.66c0,.6,.44,1.04,1.04,1.04h52.96c.6,0,1.04-.44,1.04-1.04v-13.57c0-.6-.44-1.09-1.04-1.09h-14.07Z" style="fill:#00aeef;"/></g></g><g><path d="M115.14,348.66c.3-1.26,.63-2.45,.99-3.58s.79-2.11,1.28-2.95c.49-.84,1.09-1.5,1.8-1.98s1.56-.72,2.58-.72,1.88,.24,2.58,.72c.7,.48,1.3,1.14,1.8,1.98,.49,.84,.92,1.82,1.28,2.95,.36,1.12,.69,2.32,.99,3.58l3.73,15.39c.06,.24,.12,.5,.18,.79,.06,.29,.12,.55,.18,.79,.06,.3,.12,.6,.18,.9-.06,.03-.28,.08-.67,.13-.39,.06-.8,.09-1.25,.09s-.86-.03-1.25-.09-.61-.11-.67-.13v-.18c0-.24-.02-.59-.07-1.06-.04-.46-.11-.88-.2-1.24l-1.22-4.81h-11.29l-1.22,4.81c-.09,.36-.16,.77-.2,1.24-.04,.47-.07,.82-.07,1.06v.18c-.06,.03-.28,.08-.67,.13s-.8,.09-1.25,.09-.86-.03-1.25-.09-.61-.11-.67-.13c.06-.3,.12-.6,.18-.9,.06-.24,.12-.5,.18-.79s.12-.55,.18-.79l3.82-15.39Zm.13,7.38l.05,.09,2.88-.22h8.46l-1.48-6.03c-.3-1.23-.56-2.29-.77-3.17-.21-.88-.43-1.61-.65-2.18-.23-.57-.48-.99-.77-1.26-.29-.27-.65-.41-1.1-.41s-.82,.14-1.1,.41c-.29,.27-.54,.69-.77,1.26-.22,.57-.45,1.3-.67,2.18-.23,.89-.49,1.94-.79,3.17l-1.35,5.35-1.94,.81Z" style="fill:#00aeef;"/><path d="M140.12,342.36c0-.42,0-.87-.02-1.35-.02-.48-.05-.84-.11-1.08h.31c1.38-.03,2.79-.1,4.23-.22s2.68-.18,3.73-.18c1.44,0,2.76,.21,3.96,.63,1.2,.42,2.22,1.01,3.06,1.78,.84,.76,1.49,1.69,1.96,2.77,.46,1.08,.7,2.28,.7,3.6,0,2.13-.7,3.87-2.09,5.22-1.4,1.35-3.26,2.13-5.6,2.34v.13c.18,0,.45,.07,.81,.2,.36,.13,.74,.33,1.15,.58,.41,.26,.79,.55,1.17,.88,.37,.33,.68,.69,.92,1.08l3.42,5.85c.12,.18,.26,.37,.43,.56,.16,.2,.34,.38,.52,.54,.18,.17,.34,.31,.47,.43,.14,.12,.22,.2,.25,.22-.15,.27-.44,.43-.88,.47-.44,.04-.86,.07-1.28,.07-.6,0-1.2-.08-1.8-.25-.6-.17-1.01-.43-1.21-.79l-2.79-4.86c-.51-.9-1.02-1.61-1.53-2.14-.51-.52-1.04-.92-1.57-1.19-.54-.27-1.11-.45-1.71-.54s-1.23-.13-1.89-.13h-.9v7.06c0,.24,0,.5,.02,.76,.01,.27,.03,.53,.04,.77,.01,.24,.03,.45,.04,.63,.01,.18,.02,.29,.02,.32-.06,.03-.29,.08-.7,.13-.41,.06-.83,.09-1.28,.09s-.88-.03-1.28-.09c-.4-.06-.64-.11-.7-.13,0-.03,0-.14,.02-.32,.01-.18,.03-.39,.04-.63,.01-.24,.03-.5,.04-.77,.02-.27,.02-.52,.02-.76v-21.69Zm3.69,11.52l3.51,.04c2.22,0,3.91-.48,5.06-1.44,1.15-.96,1.73-2.36,1.73-4.19,0-1.71-.62-3.07-1.84-4.09-1.23-1.02-2.87-1.53-4.91-1.53-.6,0-1.2,.04-1.8,.11-.6,.08-1.19,.19-1.75,.34v10.75Z" style="fill:#00aeef;"/><path d="M172.52,343.08h-5.27c-.24,0-.49,0-.76,.02-.27,.02-.53,.03-.77,.04-.24,.02-.45,.03-.63,.04-.18,.02-.29,.02-.32,.02-.03-.06-.08-.24-.13-.54-.06-.3-.09-.67-.09-1.12s.03-.8,.09-1.06c.06-.25,.18-.44,.36-.56,.18-.12,.45-.19,.81-.2,.36-.01,.84-.02,1.44-.02h14.22c.6,0,1.08,0,1.44,.02,.36,.02,.63,.08,.81,.2,.18,.12,.3,.31,.36,.56,.06,.26,.09,.61,.09,1.06s-.03,.83-.09,1.12c-.06,.3-.11,.48-.13,.54-.03,0-.14,0-.31-.02-.18-.01-.39-.03-.63-.04-.24-.01-.5-.03-.79-.04-.29-.01-.53-.02-.74-.02l-5.18,.04c.06,.03,.09,.06,.09,.09s0,.05-.02,.07c-.02,.02-.06,.04-.14,.09-.08,.04-.11,.08-.11,.11l-.04,.04s.03,.06,.09,.09v20.43c0,.24,0,.5,.02,.76,.01,.27,.03,.53,.04,.77,.01,.24,.03,.45,.04,.63s.02,.29,.02,.32c-.06,.03-.29,.08-.7,.13s-.83,.09-1.28,.09-.88-.03-1.28-.09c-.41-.06-.64-.11-.7-.13,0-.03,0-.14,.02-.32s.03-.39,.05-.63c.01-.24,.03-.5,.04-.77,.01-.27,.02-.52,.02-.76l.04-20.97Z" style="fill:#00aeef;"/><path d="M191.33,342.27c0-.45-.02-.95-.04-1.51-.03-.55-.06-.86-.09-.92,.06-.03,.29-.08,.7-.16,.41-.08,.83-.11,1.28-.11s.88,.04,1.28,.11c.4,.08,.64,.13,.7,.16-.03,.06-.06,.37-.09,.92-.03,.56-.04,1.06-.04,1.51v21.78c0,.24,0,.5,.02,.76,.01,.27,.03,.53,.04,.77,.01,.24,.03,.45,.04,.63,.01,.18,.02,.29,.02,.32-.06,.03-.29,.08-.7,.13-.41,.06-.83,.09-1.28,.09s-.88-.03-1.28-.09c-.4-.06-.64-.11-.7-.13,0-.03,0-.14,.02-.32,.01-.18,.03-.39,.04-.63,.01-.24,.03-.5,.04-.77,.02-.27,.02-.52,.02-.76v-21.78Z" style="fill:#00aeef;"/><path d="M203.89,342.22c0-.24,0-.51-.02-.81s-.04-.6-.07-.9c-.03-.33-.04-.67-.04-1.04,.03,0,.19,0,.47,.02,.28,.02,.62,.03,1,.05,.39,.01,.76,.03,1.13,.04,.37,.01,.67,.02,.91,.02h10.62c.6,0,1.08,0,1.44,.02,.36,.02,.63,.08,.81,.21,.18,.12,.3,.31,.36,.57,.06,.26,.09,.62,.09,1.07s-.03,.84-.09,1.14-.11,.49-.13,.55c-.03,0-.13,0-.31-.02-.18-.01-.39-.03-.63-.04-.24-.01-.5-.03-.79-.04-.29-.01-.53-.02-.74-.02h-8.1c-.42,0-.87-.01-1.35-.04-.48-.03-.78-.04-.9-.04v8.6l-.13,.45,.13,.13s-.04,.01-.04,.04h.04s.27,.04,.72,.04h6.08c.45,0,.95-.01,1.51-.04,.55-.03,.86-.06,.92-.09,.03,.06,.08,.29,.16,.68,.07,.4,.11,.82,.11,1.28s-.04,.84-.11,1.16c-.08,.32-.13,.51-.16,.57-.06-.03-.37-.06-.92-.09-.56-.03-1.06-.04-1.51-.04h-6.75v8.42c0,.24,0,.5,.02,.76,.01,.27,.03,.53,.04,.77,.01,.24,.03,.45,.04,.63,.01,.18,.02,.29,.02,.32-.06,.03-.29,.08-.69,.13-.4,.06-.82,.09-1.27,.09s-.87-.03-1.27-.09c-.4-.06-.63-.11-.69-.13,0-.03,0-.14,.02-.32,.01-.18,.03-.39,.04-.63s.03-.5,.04-.77c.01-.27,.02-.51,.02-.72l-.04-21.87Z" style="fill:#00aeef;"/><path d="M228.14,342.27c0-.45-.02-.95-.04-1.51-.03-.55-.06-.86-.09-.92,.06-.03,.29-.08,.7-.16,.41-.08,.83-.11,1.28-.11s.88,.04,1.28,.11c.4,.08,.64,.13,.7,.16-.03,.06-.06,.37-.09,.92-.03,.56-.04,1.06-.04,1.51v21.78c0,.24,0,.5,.02,.76,.01,.27,.03,.53,.04,.77,.01,.24,.03,.45,.04,.63,.01,.18,.02,.29,.02,.32-.06,.03-.29,.08-.7,.13-.41,.06-.83,.09-1.28,.09s-.88-.03-1.28-.09c-.4-.06-.64-.11-.7-.13,0-.03,0-.14,.02-.32,.01-.18,.03-.39,.04-.63,.01-.24,.03-.5,.04-.77,.02-.27,.02-.52,.02-.76v-21.78Z" style="fill:#00aeef;"/><path d="M239.39,353.16c0-2.07,.27-3.94,.82-5.62,.55-1.68,1.32-3.12,2.32-4.32,1-1.2,2.19-2.13,3.57-2.79,1.38-.66,2.91-.99,4.59-.99,1.44,0,2.77,.11,4,.34,1.23,.22,2.17,.43,2.83,.61,.36,.09,.54,.32,.54,.67,0,.15-.02,.29-.04,.41-.03,.12-.08,.25-.13,.41l-.72,2.21c-.72-.3-1.61-.62-2.68-.97s-2.05-.52-2.95-.52c-1.26,0-2.4,.25-3.42,.76-1.02,.51-1.89,1.22-2.61,2.14-.72,.92-1.28,2.03-1.69,3.33-.41,1.3-.61,2.75-.61,4.34s.2,3.04,.61,4.34c.4,1.31,.97,2.42,1.69,3.33,.72,.92,1.59,1.63,2.61,2.14,1.02,.51,2.16,.77,3.42,.77,.9,0,1.88-.17,2.95-.52s1.96-.67,2.68-.97l.72,2.21c.06,.15,.1,.29,.13,.41,.03,.12,.04,.25,.04,.4,0,.36-.18,.58-.54,.67-.66,.18-1.6,.38-2.83,.61-1.23,.22-2.56,.34-4,.34-1.68,0-3.21-.33-4.59-.99-1.38-.66-2.57-1.59-3.57-2.79-1-1.2-1.77-2.64-2.32-4.32-.55-1.68-.82-3.56-.82-5.62Z" style="fill:#00aeef;"/><path d="M265.85,342.27c0-.45-.02-.95-.04-1.51-.03-.55-.06-.86-.09-.92,.06-.03,.29-.08,.7-.16,.41-.08,.83-.11,1.28-.11s.88,.04,1.28,.11c.4,.08,.64,.13,.7,.16-.03,.06-.06,.37-.09,.92-.03,.56-.04,1.06-.04,1.51v21.78c0,.24,0,.5,.02,.76,.01,.27,.03,.53,.04,.77,.01,.24,.03,.45,.04,.63,.01,.18,.02,.29,.02,.32-.06,.03-.29,.08-.7,.13-.41,.06-.83,.09-1.28,.09s-.88-.03-1.28-.09c-.4-.06-.64-.11-.7-.13,0-.03,0-.14,.02-.32,.01-.18,.03-.39,.04-.63,.01-.24,.03-.5,.04-.77,.02-.27,.02-.52,.02-.76v-21.78Z" style="fill:#00aeef;"/><path d="M281.28,348.66c.3-1.26,.63-2.45,.99-3.58s.79-2.11,1.28-2.95c.49-.84,1.09-1.5,1.8-1.98s1.56-.72,2.58-.72,1.88,.24,2.58,.72c.7,.48,1.3,1.14,1.8,1.98,.49,.84,.92,1.82,1.28,2.95,.36,1.12,.69,2.32,.99,3.58l3.73,15.39c.06,.24,.12,.5,.18,.79,.06,.29,.12,.55,.18,.79,.06,.3,.12,.6,.18,.9-.06,.03-.28,.08-.67,.13-.39,.06-.8,.09-1.25,.09s-.86-.03-1.25-.09-.61-.11-.67-.13v-.18c0-.24-.02-.59-.07-1.06-.04-.46-.11-.88-.2-1.24l-1.22-4.81h-11.29l-1.22,4.81c-.09,.36-.16,.77-.2,1.24-.04,.47-.07,.82-.07,1.06v.18c-.06,.03-.28,.08-.67,.13s-.8,.09-1.25,.09-.86-.03-1.25-.09-.61-.11-.67-.13c.06-.3,.12-.6,.18-.9,.06-.24,.12-.5,.18-.79s.12-.55,.18-.79l3.82-15.39Zm.13,7.38l.05,.09,2.88-.22h8.46l-1.48-6.03c-.3-1.23-.56-2.29-.77-3.17-.21-.88-.43-1.61-.65-2.18-.23-.57-.48-.99-.77-1.26-.29-.27-.65-.41-1.1-.41s-.82,.14-1.1,.41c-.29,.27-.54,.69-.77,1.26-.22,.57-.45,1.3-.67,2.18-.23,.89-.49,1.94-.79,3.17l-1.35,5.35-1.94,.81Z" style="fill:#00aeef;"/><path d="M306.26,342.27c0-.45-.02-.95-.04-1.51-.03-.55-.06-.86-.09-.92,.06-.03,.29-.08,.7-.16,.41-.08,.83-.11,1.28-.11s.88,.04,1.28,.11c.4,.08,.64,.13,.7,.16-.03,.06-.06,.37-.09,.92-.03,.56-.04,1.06-.04,1.51v20.39l-.05,.67,.09,.09h-.04v-.04c.06-.06,.28-.09,.67-.09h9.72c.21,0,.46,0,.74-.02,.28-.01,.55-.03,.79-.04,.24-.01,.45-.03,.63-.04,.18-.02,.28-.02,.31-.02,.03,.06,.07,.24,.14,.54,.06,.3,.09,.68,.09,1.12s-.03,.8-.09,1.06c-.06,.26-.18,.44-.36,.56-.18,.12-.45,.19-.81,.2-.36,.02-.84,.02-1.44,.02h-10.71c-.24,0-.55,0-.92,.02-.38,.01-.75,.03-1.12,.04-.38,.01-.71,.03-.99,.04-.29,.01-.44,.02-.47,.02,0-.03,0-.13,.02-.32,.01-.18,.03-.39,.04-.63,.01-.24,.03-.5,.04-.76,.02-.27,.02-.52,.02-.76v-22.05Z" style="fill:#00aeef;"/><path d="M348.29,342.27c0-.45-.02-.95-.04-1.51-.03-.55-.06-.86-.09-.92,.06-.03,.29-.08,.7-.16,.41-.08,.83-.11,1.28-.11s.88,.04,1.28,.11c.4,.08,.64,.13,.7,.16-.03,.06-.06,.37-.09,.92-.03,.56-.04,1.06-.04,1.51v21.78c0,.24,0,.5,.02,.76,.01,.27,.03,.53,.04,.77,.01,.24,.03,.45,.04,.63,.01,.18,.02,.29,.02,.32-.06,.03-.29,.08-.7,.13-.41,.06-.83,.09-1.28,.09s-.88-.03-1.28-.09c-.4-.06-.64-.11-.7-.13,0-.03,0-.14,.02-.32,.01-.18,.03-.39,.04-.63,.01-.24,.03-.5,.04-.77,.02-.27,.02-.52,.02-.76v-21.78Z" style="fill:#00aeef;"/><path d="M364.4,364.09c0,.45,.01,.95,.04,1.51,.03,.56,.06,.86,.09,.92-.06,.03-.28,.08-.65,.16-.38,.07-.79,.11-1.24,.11s-.86-.04-1.24-.11c-.38-.08-.59-.13-.65-.16,.03-.06,.06-.37,.09-.92,.03-.55,.05-1.06,.05-1.51v-21.78c0-.21,0-.46-.02-.74-.02-.28-.03-.55-.05-.79s-.03-.45-.04-.63c-.02-.18-.02-.29-.02-.32,.06-.03,.28-.07,.68-.13,.39-.06,.81-.09,1.26-.09l13.59,18.63v-15.93c0-.45-.02-.95-.07-1.51-.04-.55-.08-.86-.11-.92,.06-.03,.28-.08,.67-.16,.39-.07,.81-.11,1.26-.11s.87,.04,1.26,.11c.39,.08,.61,.13,.67,.16-.03,.06-.07,.37-.11,.92-.04,.56-.07,1.06-.07,1.51v21.78c0,.24,0,.5,.02,.77,.01,.27,.03,.52,.04,.76,.01,.24,.03,.45,.04,.63,.01,.18,.02,.29,.02,.32-.06,.03-.28,.08-.65,.13-.38,.06-.79,.09-1.24,.09v.09l-13.77-18.95v.72l.13,1.58v13.86Z" style="fill:#00aeef;"/><path d="M395.05,343.08h-5.27c-.24,0-.49,0-.76,.02-.27,.02-.53,.03-.77,.04-.24,.02-.45,.03-.63,.04-.18,.02-.29,.02-.32,.02-.03-.06-.08-.24-.13-.54-.06-.3-.09-.67-.09-1.12s.03-.8,.09-1.06c.06-.25,.18-.44,.36-.56,.18-.12,.45-.19,.81-.2,.36-.01,.84-.02,1.44-.02h14.22c.6,0,1.08,0,1.44,.02,.36,.02,.63,.08,.81,.2,.18,.12,.3,.31,.36,.56,.06,.26,.09,.61,.09,1.06s-.03,.83-.09,1.12c-.06,.3-.11,.48-.13,.54-.03,0-.14,0-.31-.02-.18-.01-.39-.03-.63-.04-.24-.01-.5-.03-.79-.04-.29-.01-.53-.02-.74-.02l-5.18,.04c.06,.03,.09,.06,.09,.09s0,.05-.02,.07c-.02,.02-.06,.04-.14,.09-.08,.04-.11,.08-.11,.11l-.04,.04s.03,.06,.09,.09v20.43c0,.24,0,.5,.02,.76,.01,.27,.03,.53,.04,.77,.01,.24,.03,.45,.04,.63s.02,.29,.02,.32c-.06,.03-.29,.08-.7,.13s-.83,.09-1.28,.09-.88-.03-1.28-.09c-.41-.06-.64-.11-.7-.13,0-.03,0-.14,.02-.32s.03-.39,.05-.63c.01-.24,.03-.5,.04-.77,.01-.27,.02-.52,.02-.76l.04-20.97Z" style="fill:#00aeef;"/><path d="M413.95,342.04c0-.24,0-.5-.02-.76-.02-.27-.04-.54-.07-.81-.03-.3-.04-.61-.04-.94,.03,0,.19,0,.47,.02,.28,.01,.62,.03,1.01,.04,.39,.01,.77,.03,1.15,.04,.37,.02,.68,.02,.92,.02l10.17-.04c.6,0,1.08,0,1.44,.02,.36,.02,.63,.08,.81,.21,.18,.12,.3,.31,.36,.57,.06,.26,.09,.62,.09,1.07s-.03,.84-.09,1.14-.11,.49-.13,.55c-.03,0-.14,0-.31-.02-.18-.01-.39-.03-.63-.04-.24-.01-.5-.03-.79-.04-.29-.01-.53-.02-.74-.02h-7.74c-.36,0-.77,0-1.22-.02-.45-.01-.76-.02-.94-.02v6.89l.27,.49v.09h-.18l.09-.04h5.17c.45,0,.95-.01,1.51-.04,.55-.03,.86-.06,.92-.09,.03,.06,.08,.29,.16,.68,.07,.39,.11,.82,.11,1.28s-.04,.84-.11,1.16c-.08,.32-.13,.51-.16,.57-.06-.03-.37-.06-.92-.09-.56-.03-1.06-.04-1.51-.04h-5.4v9.54c.21-.03,.47-.05,.79-.07,.31-.01,.64-.02,.97-.02h8.15c.21,0,.46,0,.74-.02,.28-.01,.55-.03,.79-.04,.24-.01,.45-.03,.63-.04,.18-.02,.28-.02,.31-.02,.03,.06,.07,.24,.13,.54,.06,.3,.09,.68,.09,1.12s-.03,.8-.09,1.06c-.06,.26-.18,.44-.36,.56-.18,.12-.45,.19-.81,.2-.36,.02-.84,.02-1.44,.02h-10.21c-.24,0-.55,0-.92,.02-.38,.01-.75,.03-1.12,.04-.38,.01-.71,.03-.99,.04-.29,.01-.44,.02-.47,.02,0-.03,0-.13,.02-.32,.01-.18,.03-.39,.04-.63,.02-.24,.03-.5,.05-.76,.01-.27,.02-.52,.02-.76l.04-22.28Z" style="fill:#00aeef;"/><path d="M438.11,342.27c0-.45-.02-.95-.04-1.51-.03-.55-.06-.86-.09-.92,.06-.03,.29-.08,.7-.16,.41-.08,.83-.11,1.28-.11s.88,.04,1.28,.11c.4,.08,.64,.13,.7,.16-.03,.06-.06,.37-.09,.92-.03,.56-.04,1.06-.04,1.51v20.39l-.05,.67,.09,.09h-.04v-.04c.06-.06,.28-.09,.67-.09h9.72c.21,0,.46,0,.74-.02,.28-.01,.55-.03,.79-.04,.24-.01,.45-.03,.63-.04,.18-.02,.28-.02,.31-.02,.03,.06,.07,.24,.14,.54,.06,.3,.09,.68,.09,1.12s-.03,.8-.09,1.06c-.06,.26-.18,.44-.36,.56-.18,.12-.45,.19-.81,.2-.36,.02-.84,.02-1.44,.02h-10.71c-.24,0-.55,0-.92,.02-.38,.01-.75,.03-1.12,.04-.38,.01-.71,.03-.99,.04-.29,.01-.44,.02-.47,.02,0-.03,0-.13,.02-.32,.01-.18,.03-.39,.04-.63,.01-.24,.03-.5,.04-.76,.02-.27,.02-.52,.02-.76v-22.05Z" style="fill:#00aeef;"/><path d="M462.36,342.27c0-.45-.02-.95-.04-1.51-.03-.55-.06-.86-.09-.92,.06-.03,.29-.08,.7-.16,.41-.08,.83-.11,1.28-.11s.88,.04,1.28,.11c.4,.08,.64,.13,.7,.16-.03,.06-.06,.37-.09,.92-.03,.56-.04,1.06-.04,1.51v20.39l-.05,.67,.09,.09h-.04v-.04c.06-.06,.28-.09,.67-.09h9.72c.21,0,.46,0,.74-.02,.28-.01,.55-.03,.79-.04,.24-.01,.45-.03,.63-.04,.18-.02,.28-.02,.31-.02,.03,.06,.07,.24,.14,.54,.06,.3,.09,.68,.09,1.12s-.03,.8-.09,1.06c-.06,.26-.18,.44-.36,.56-.18,.12-.45,.19-.81,.2-.36,.02-.84,.02-1.44,.02h-10.71c-.24,0-.55,0-.92,.02-.38,.01-.75,.03-1.12,.04-.38,.01-.71,.03-.99,.04-.29,.01-.44,.02-.47,.02,0-.03,0-.13,.02-.32,.01-.18,.03-.39,.04-.63,.01-.24,.03-.5,.04-.76,.02-.27,.02-.52,.02-.76v-22.05Z" style="fill:#00aeef;"/><path d="M486.62,342.27c0-.45-.02-.95-.04-1.51-.03-.55-.06-.86-.09-.92,.06-.03,.29-.08,.7-.16,.41-.08,.83-.11,1.28-.11s.88,.04,1.28,.11c.4,.08,.64,.13,.7,.16-.03,.06-.06,.37-.09,.92-.03,.56-.04,1.06-.04,1.51v21.78c0,.24,0,.5,.02,.76,.01,.27,.03,.53,.04,.77,.01,.24,.03,.45,.04,.63,.01,.18,.02,.29,.02,.32-.06,.03-.29,.08-.7,.13-.41,.06-.83,.09-1.28,.09s-.88-.03-1.28-.09c-.4-.06-.64-.11-.7-.13,0-.03,0-.14,.02-.32,.01-.18,.03-.39,.04-.63,.01-.24,.03-.5,.04-.77,.02-.27,.02-.52,.02-.76v-21.78Z" style="fill:#00aeef;"/><path d="M497.96,353.16c0-2.07,.27-3.94,.81-5.62,.54-1.68,1.31-3.12,2.29-4.32,.99-1.2,2.17-2.13,3.56-2.79,1.38-.66,2.91-.99,4.59-.99,1.44,0,2.77,.11,4,.34,1.23,.22,2.17,.43,2.83,.61,.36,.09,.54,.32,.54,.67,0,.15-.02,.29-.04,.41-.03,.12-.08,.25-.13,.41l-.72,2.21c-.72-.3-1.61-.62-2.68-.97-1.07-.34-2.05-.52-2.95-.52-1.23,0-2.36,.25-3.38,.76-1.02,.51-1.9,1.22-2.63,2.14-.74,.92-1.31,2.03-1.71,3.33-.41,1.3-.61,2.75-.61,4.34s.19,3.04,.56,4.34c.37,1.31,.91,2.42,1.6,3.33,.69,.92,1.52,1.63,2.5,2.14,.97,.51,2.05,.77,3.22,.77,.72,0,1.36-.11,1.91-.32s1.24-.48,2.05-.81v-6.75h-2.25c-.6,0-1.08-.02-1.44-.07-.36-.04-.63-.13-.81-.27-.18-.13-.3-.34-.36-.63s-.09-.65-.09-1.1,.03-.83,.09-1.12,.1-.48,.14-.54c.03,0,.13,0,.31,.02,.18,.02,.39,.03,.63,.04,.24,.02,.5,.03,.77,.04,.27,.02,.52,.02,.77,.02h3.28c.21,0,.47,0,.79-.02,.31-.01,.61-.02,.88-.02s.51,0,.72-.02c.21-.01,.33-.02,.36-.02,0,.06-.02,.28-.04,.65-.03,.38-.04,.79-.04,1.24v9.99c0,.24,0,.5,.02,.76,.01,.27,.03,.53,.04,.77,.01,.24,.03,.45,.04,.63,.01,.18,.02,.29,.02,.32h-.13c-.15,0-.5-.05-1.04-.16-.54-.1-1.16-.16-1.84-.16-.96,0-1.89,.11-2.79,.34-.9,.22-1.88,.34-2.93,.34-1.62,0-3.1-.33-4.43-.99-1.33-.66-2.47-1.59-3.42-2.79-.94-1.2-1.67-2.64-2.18-4.32-.51-1.68-.77-3.56-.77-5.62h.09Z" style="fill:#00aeef;"/><path d="M525.77,342.04c0-.24,0-.5-.02-.76-.02-.27-.04-.54-.07-.81-.03-.3-.04-.61-.04-.94,.03,0,.19,0,.47,.02,.28,.01,.62,.03,1.01,.04,.39,.01,.77,.03,1.15,.04,.37,.02,.68,.02,.92,.02l10.17-.04c.6,0,1.08,0,1.44,.02,.36,.02,.63,.08,.81,.21,.18,.12,.3,.31,.36,.57,.06,.26,.09,.62,.09,1.07s-.03,.84-.09,1.14c-.06,.3-.11,.49-.13,.55-.03,0-.14,0-.32-.02-.18-.01-.39-.03-.63-.04-.24-.01-.5-.03-.79-.04-.29-.01-.53-.02-.74-.02h-7.74c-.36,0-.77,0-1.22-.02-.45-.01-.76-.02-.94-.02v6.89l.27,.49v.09h-.18l.09-.04h5.17c.45,0,.95-.01,1.51-.04,.55-.03,.86-.06,.92-.09,.03,.06,.08,.29,.16,.68,.08,.39,.11,.82,.11,1.28s-.04,.84-.11,1.16c-.07,.32-.13,.51-.16,.57-.06-.03-.37-.06-.92-.09-.55-.03-1.06-.04-1.51-.04h-5.4v9.54c.21-.03,.47-.05,.79-.07,.31-.01,.64-.02,.97-.02h8.15c.21,0,.46,0,.74-.02,.28-.01,.55-.03,.79-.04,.24-.01,.45-.03,.63-.04,.18-.02,.28-.02,.32-.02,.03,.06,.07,.24,.13,.54,.06,.3,.09,.68,.09,1.12s-.03,.8-.09,1.06c-.06,.26-.18,.44-.36,.56-.18,.12-.45,.19-.81,.2-.36,.02-.84,.02-1.44,.02h-10.21c-.24,0-.55,0-.92,.02-.38,.01-.75,.03-1.12,.04-.38,.01-.71,.03-.99,.04-.29,.01-.44,.02-.47,.02,0-.03,0-.13,.02-.32,.01-.18,.03-.39,.04-.63,.02-.24,.03-.5,.05-.76,.01-.27,.02-.52,.02-.76l.04-22.28Z" style="fill:#00aeef;"/><path d="M553.49,364.09c0,.45,.01,.95,.04,1.51,.03,.56,.06,.86,.09,.92-.06,.03-.28,.08-.65,.16-.38,.07-.79,.11-1.24,.11s-.86-.04-1.24-.11c-.38-.08-.59-.13-.65-.16,.03-.06,.06-.37,.09-.92,.03-.55,.04-1.06,.04-1.51v-21.78c0-.21,0-.46-.02-.74-.02-.28-.03-.55-.05-.79-.01-.24-.03-.45-.04-.63-.01-.18-.02-.29-.02-.32,.06-.03,.28-.07,.67-.13,.39-.06,.81-.09,1.26-.09l13.59,18.63v-15.93c0-.45-.02-.95-.07-1.51-.04-.55-.08-.86-.11-.92,.06-.03,.28-.08,.67-.16,.39-.07,.81-.11,1.26-.11s.87,.04,1.26,.11c.39,.08,.62,.13,.68,.16-.03,.06-.07,.37-.11,.92-.04,.56-.07,1.06-.07,1.51v21.78c0,.24,0,.5,.02,.77,.02,.27,.03,.52,.04,.76s.03,.45,.04,.63c.02,.18,.02,.29,.02,.32-.06,.03-.28,.08-.65,.13-.38,.06-.79,.09-1.24,.09v.09l-13.77-18.95v.72l.13,1.58v13.86Z" style="fill:#00aeef;"/><path d="M584.13,343.08h-5.27c-.24,0-.49,0-.76,.02-.27,.02-.53,.03-.77,.04-.24,.02-.45,.03-.63,.04-.18,.02-.29,.02-.32,.02-.03-.06-.08-.24-.13-.54-.06-.3-.09-.67-.09-1.12s.03-.8,.09-1.06c.06-.25,.18-.44,.36-.56,.18-.12,.45-.19,.81-.2,.36-.01,.84-.02,1.44-.02h14.22c.6,0,1.08,0,1.44,.02,.36,.02,.63,.08,.81,.2,.18,.12,.3,.31,.36,.56,.06,.26,.09,.61,.09,1.06s-.03,.83-.09,1.12c-.06,.3-.11,.48-.13,.54-.03,0-.13,0-.31-.02-.18-.01-.39-.03-.63-.04-.24-.01-.5-.03-.79-.04-.29-.01-.53-.02-.74-.02l-5.18,.04c.06,.03,.09,.06,.09,.09s0,.05-.02,.07c-.02,.02-.06,.04-.13,.09-.08,.04-.11,.08-.11,.11l-.04,.04s.03,.06,.09,.09v20.43c0,.24,0,.5,.02,.76,.01,.27,.03,.53,.04,.77,.01,.24,.03,.45,.04,.63,.01,.18,.02,.29,.02,.32-.06,.03-.29,.08-.7,.13-.4,.06-.83,.09-1.28,.09s-.88-.03-1.28-.09c-.41-.06-.64-.11-.7-.13,0-.03,0-.14,.02-.32,.02-.18,.03-.39,.05-.63,.01-.24,.03-.5,.04-.77,.01-.27,.02-.52,.02-.76l.04-20.97Z" style="fill:#00aeef;"/><path d="M624.36,342.04c0-.24,0-.5-.02-.76-.02-.27-.04-.54-.07-.81-.03-.3-.04-.61-.04-.94,.03,0,.19,0,.47,.02,.28,.01,.62,.03,1.01,.04,.39,.01,.77,.03,1.15,.04,.37,.02,.68,.02,.92,.02l10.17-.04c.6,0,1.08,0,1.44,.02,.36,.02,.63,.08,.81,.21,.18,.12,.3,.31,.36,.57,.06,.26,.09,.62,.09,1.07s-.03,.84-.09,1.14c-.06,.3-.11,.49-.13,.55-.03,0-.13,0-.31-.02-.18-.01-.39-.03-.63-.04-.24-.01-.5-.03-.79-.04-.29-.01-.53-.02-.74-.02h-7.74c-.36,0-.76,0-1.21-.02-.45-.01-.76-.02-.95-.02v6.89l.27,.49v.09h-.18l.09-.04h5.17c.45,0,.95-.01,1.51-.04,.55-.03,.86-.06,.92-.09,.03,.06,.08,.29,.16,.68,.07,.39,.11,.82,.11,1.28s-.04,.84-.11,1.16c-.08,.32-.13,.51-.16,.57-.06-.03-.37-.06-.92-.09-.56-.03-1.06-.04-1.51-.04h-5.4v9.54c.21-.03,.47-.05,.79-.07,.32-.01,.64-.02,.97-.02h8.14c.21,0,.46,0,.74-.02,.29-.01,.55-.03,.79-.04s.45-.03,.63-.04c.18-.02,.29-.02,.31-.02,.03,.06,.07,.24,.13,.54,.06,.3,.09,.68,.09,1.12s-.03,.8-.09,1.06c-.06,.26-.18,.44-.36,.56-.18,.12-.45,.19-.81,.2-.36,.02-.84,.02-1.44,.02h-10.21c-.24,0-.55,0-.92,.02-.38,.01-.75,.03-1.12,.04-.38,.01-.71,.03-.99,.04-.29,.01-.44,.02-.47,.02,0-.03,0-.13,.02-.32,.02-.18,.03-.39,.04-.63,.02-.24,.03-.5,.05-.76,.01-.27,.02-.52,.02-.76l.04-22.28Z" style="fill:#00aeef;"/><path d="M652.08,364.09c0,.45,.01,.95,.04,1.51,.03,.56,.06,.86,.09,.92-.06,.03-.28,.08-.65,.16-.38,.07-.79,.11-1.24,.11s-.86-.04-1.24-.11c-.38-.08-.59-.13-.65-.16,.03-.06,.06-.37,.09-.92,.03-.55,.05-1.06,.05-1.51v-21.78c0-.21,0-.46-.02-.74-.02-.28-.03-.55-.04-.79-.02-.24-.03-.45-.04-.63-.02-.18-.02-.29-.02-.32,.06-.03,.29-.07,.68-.13,.39-.06,.81-.09,1.26-.09l13.59,18.63v-15.93c0-.45-.02-.95-.07-1.51-.04-.55-.08-.86-.11-.92,.06-.03,.29-.08,.67-.16,.39-.07,.81-.11,1.26-.11s.87,.04,1.26,.11c.39,.08,.61,.13,.67,.16-.03,.06-.07,.37-.11,.92-.04,.56-.07,1.06-.07,1.51v21.78c0,.24,0,.5,.02,.77,.01,.27,.03,.52,.04,.76,.01,.24,.03,.45,.04,.63,.01,.18,.02,.29,.02,.32-.06,.03-.28,.08-.65,.13s-.79,.09-1.24,.09v.09l-13.77-18.95v.72l.13,1.58v13.86Z" style="fill:#00aeef;"/><path d="M686.21,366.88c-1.02,0-1.9-.24-2.65-.72-.75-.48-1.4-1.14-1.95-1.98-.55-.84-1.03-1.82-1.44-2.95s-.76-2.32-1.06-3.58l-3.73-15.39c-.06-.24-.12-.5-.18-.79-.06-.29-.12-.55-.18-.79-.06-.3-.12-.6-.18-.9,.06-.03,.28-.07,.67-.13,.39-.06,.8-.09,1.25-.09s.86,.03,1.25,.09c.39,.06,.61,.11,.67,.13v.18c0,.24,.02,.58,.07,1.01,.04,.43,.11,.86,.2,1.28l3.57,14.19c.3,1.23,.58,2.28,.84,3.17,.26,.88,.52,1.61,.79,2.18,.27,.57,.58,.99,.93,1.26,.35,.27,.74,.4,1.2,.4s.85-.13,1.2-.4c.35-.27,.65-.69,.92-1.26,.27-.57,.53-1.3,.79-2.18s.53-1.94,.83-3.17l3.57-14.19c.09-.36,.16-.77,.2-1.23s.07-.82,.07-1.06v-.18c.06-.03,.28-.07,.67-.13,.39-.06,.8-.09,1.25-.09s.86,.03,1.25,.09c.39,.06,.61,.11,.67,.13-.06,.3-.12,.6-.18,.9-.06,.24-.12,.5-.18,.79-.06,.29-.12,.55-.18,.79l-3.73,15.39c-.3,1.26-.65,2.45-1.06,3.58s-.88,2.11-1.44,2.95c-.55,.84-1.21,1.5-1.95,1.98-.75,.48-1.63,.72-2.65,.72h-.09Z" style="fill:#00aeef;"/><path d="M705.14,342.27c0-.45-.01-.95-.04-1.51-.03-.55-.06-.86-.09-.92,.06-.03,.29-.08,.7-.16,.41-.08,.83-.11,1.28-.11s.88,.04,1.28,.11c.4,.08,.64,.13,.7,.16-.03,.06-.06,.37-.09,.92-.03,.56-.04,1.06-.04,1.51v21.78c0,.24,0,.5,.02,.76,.02,.27,.03,.53,.04,.77s.03,.45,.04,.63,.02,.29,.02,.32c-.06,.03-.29,.08-.7,.13-.41,.06-.83,.09-1.28,.09s-.88-.03-1.28-.09c-.4-.06-.64-.11-.7-.13,0-.03,0-.14,.02-.32,.01-.18,.03-.39,.04-.63,.01-.24,.03-.5,.04-.77,.01-.27,.02-.52,.02-.76v-21.78Z" style="fill:#00aeef;"/><path d="M717.69,342.36c0-.42,0-.87-.02-1.35-.02-.48-.05-.84-.11-1.08h.32c1.38-.03,2.79-.1,4.23-.22s2.68-.18,3.74-.18c1.44,0,2.76,.21,3.96,.63,1.2,.42,2.22,1.01,3.06,1.78,.84,.76,1.49,1.69,1.96,2.77s.7,2.28,.7,3.6c0,2.13-.7,3.87-2.09,5.22-1.39,1.35-3.26,2.13-5.6,2.34v.13c.18,0,.45,.07,.81,.2,.36,.13,.74,.33,1.15,.58,.4,.26,.79,.55,1.17,.88s.68,.69,.92,1.08l3.42,5.85c.12,.18,.26,.37,.43,.56,.16,.2,.34,.38,.52,.54,.18,.17,.34,.31,.47,.43s.22,.2,.25,.22c-.15,.27-.44,.43-.88,.47-.44,.04-.86,.07-1.28,.07-.6,0-1.2-.08-1.8-.25-.6-.17-1-.43-1.21-.79l-2.79-4.86c-.51-.9-1.02-1.61-1.53-2.14-.51-.52-1.04-.92-1.57-1.19-.54-.27-1.11-.45-1.71-.54-.6-.09-1.23-.13-1.89-.13h-.9v7.06c0,.24,0,.5,.02,.76,.01,.27,.03,.53,.04,.77,.01,.24,.03,.45,.04,.63,.01,.18,.02,.29,.02,.32-.06,.03-.29,.08-.7,.13-.41,.06-.83,.09-1.28,.09s-.88-.03-1.28-.09-.64-.11-.7-.13c0-.03,0-.14,.02-.32,.01-.18,.03-.39,.04-.63,.01-.24,.03-.5,.04-.77,.02-.27,.02-.52,.02-.76v-21.69Zm3.69,11.52l3.51,.04c2.22,0,3.91-.48,5.06-1.44,1.15-.96,1.73-2.36,1.73-4.19,0-1.71-.62-3.07-1.84-4.09-1.23-1.02-2.87-1.53-4.91-1.53-.6,0-1.2,.04-1.8,.11-.6,.08-1.19,.19-1.75,.34v10.75Z" style="fill:#00aeef;"/><path d="M742.44,353.16c0-2.07,.25-3.94,.76-5.62,.51-1.68,1.24-3.12,2.18-4.32,.95-1.2,2.08-2.13,3.42-2.79,1.33-.66,2.81-.99,4.43-.99s3.09,.33,4.41,.99c1.32,.66,2.45,1.59,3.4,2.79,.94,1.2,1.68,2.64,2.21,4.32,.52,1.68,.79,3.55,.79,5.62s-.26,3.95-.79,5.62c-.53,1.68-1.26,3.12-2.21,4.32-.94,1.2-2.08,2.13-3.4,2.79-1.32,.66-2.79,.99-4.41,.99s-3.1-.33-4.43-.99c-1.33-.66-2.47-1.59-3.42-2.79-.94-1.2-1.67-2.64-2.18-4.32-.51-1.68-.76-3.56-.76-5.62Zm3.83,0c0,1.59,.16,3.04,.49,4.34,.33,1.31,.8,2.42,1.42,3.33,.62,.92,1.35,1.63,2.21,2.14,.86,.51,1.81,.77,2.86,.77s2-.25,2.86-.77c.86-.51,1.59-1.22,2.21-2.14,.62-.91,1.09-2.02,1.42-3.33,.33-1.3,.49-2.75,.49-4.34s-.16-3.04-.49-4.34c-.33-1.3-.8-2.41-1.42-3.33-.62-.92-1.35-1.63-2.21-2.14-.86-.51-1.81-.76-2.86-.76s-2,.25-2.86,.76c-.86,.51-1.59,1.22-2.21,2.14-.62,.92-1.09,2.03-1.42,3.33s-.49,2.75-.49,4.34Z" style="fill:#00aeef;"/><path d="M775.16,364.09c0,.45,.02,.95,.04,1.51,.03,.56,.06,.86,.09,.92-.06,.03-.28,.08-.65,.16-.38,.07-.79,.11-1.24,.11s-.86-.04-1.24-.11c-.38-.08-.59-.13-.65-.16,.03-.06,.06-.37,.09-.92,.03-.55,.04-1.06,.04-1.51v-21.78c0-.21,0-.46-.02-.74-.02-.28-.03-.55-.05-.79s-.03-.45-.04-.63c-.01-.18-.02-.29-.02-.32,.06-.03,.29-.07,.68-.13,.39-.06,.81-.09,1.26-.09l13.59,18.63v-15.93c0-.45-.02-.95-.07-1.51-.04-.55-.08-.86-.11-.92,.06-.03,.28-.08,.67-.16,.39-.07,.81-.11,1.26-.11s.87,.04,1.26,.11c.39,.08,.61,.13,.67,.16-.03,.06-.07,.37-.11,.92-.04,.56-.07,1.06-.07,1.51v21.78c0,.24,0,.5,.02,.77,.01,.27,.03,.52,.04,.76,.01,.24,.03,.45,.04,.63s.02,.29,.02,.32c-.06,.03-.28,.08-.65,.13s-.79,.09-1.24,.09v.09l-13.77-18.95v.72l.13,1.58v13.86Z" style="fill:#00aeef;"/><path d="M799.46,343.08c0-.24,0-.55-.02-.92-.01-.38-.04-.74-.07-1.1-.03-.42-.04-.87-.04-1.35h5.35c.9,0,1.79,.13,2.68,.41,.88,.27,1.71,.64,2.47,1.1s1.46,1.03,2.09,1.69,1.14,1.39,1.53,2.2c.39-.81,.9-1.54,1.53-2.2,.63-.66,1.33-1.22,2.09-1.69s1.59-.83,2.47-1.1c.88-.27,1.78-.41,2.68-.41h5.36c-.03,.48-.06,.93-.09,1.35-.03,.36-.04,.73-.04,1.1v21.94c0,.24,0,.5,.02,.77,.02,.27,.03,.52,.04,.76,.02,.24,.03,.45,.04,.63,.02,.18,.02,.29,.02,.32-.06,.03-.29,.08-.7,.13-.41,.06-.83,.09-1.28,.09s-.88-.03-1.28-.09-.64-.1-.7-.13c0-.03,0-.14,.02-.32,.01-.18,.03-.39,.04-.63,.01-.24,.03-.5,.04-.76,.01-.27,.02-.53,.02-.77v-21.1h-1.31c-.87,0-1.73,.2-2.59,.58s-1.62,.92-2.29,1.6c-.67,.67-1.22,1.46-1.64,2.36-.42,.9-.63,1.86-.63,2.88v13.68c0,.24,0,.5,.02,.77,.01,.27,.03,.52,.04,.76,.01,.24,.03,.45,.04,.63,.01,.18,.02,.29,.02,.32-.06,.03-.29,.08-.7,.13-.41,.06-.83,.09-1.28,.09s-.88-.03-1.28-.09c-.41-.06-.64-.1-.7-.13,0-.03,0-.14,.02-.32,.01-.18,.03-.39,.04-.63s.03-.5,.04-.76c.02-.27,.02-.53,.02-.77v-13.68c0-1.02-.21-1.98-.63-2.88-.42-.9-.97-1.69-1.64-2.36-.67-.68-1.44-1.21-2.29-1.6s-1.72-.58-2.59-.58h-1.48l.18,.72v20.34c0,.24,0,.5,.02,.76,.01,.27,.03,.53,.04,.77,.01,.24,.03,.45,.04,.63,.01,.18,.02,.29,.02,.32-.06,.03-.29,.08-.7,.13-.4,.06-.83,.09-1.28,.09s-.88-.03-1.28-.09c-.41-.06-.64-.11-.7-.13,0-.03,0-.14,.02-.32s.03-.39,.04-.63c.02-.24,.03-.5,.04-.77,.02-.27,.02-.52,.02-.76v-20.97Z" style="fill:#00aeef;"/><path d="M836.4,342.04c0-.24,0-.5-.02-.76-.02-.27-.04-.54-.07-.81-.03-.3-.04-.61-.04-.94,.03,0,.19,0,.47,.02,.29,.01,.62,.03,1.01,.04,.39,.01,.77,.03,1.15,.04,.38,.02,.68,.02,.92,.02l10.17-.04c.6,0,1.08,0,1.44,.02,.36,.02,.63,.08,.81,.21,.18,.12,.3,.31,.36,.57,.06,.26,.09,.62,.09,1.07s-.03,.84-.09,1.14c-.06,.3-.11,.49-.13,.55-.03,0-.14,0-.32-.02-.18-.01-.39-.03-.63-.04-.24-.01-.5-.03-.79-.04-.29-.01-.53-.02-.74-.02h-7.74c-.36,0-.77,0-1.22-.02-.45-.01-.76-.02-.94-.02v6.89l.27,.49v.09h-.18l.09-.04h5.17c.45,0,.95-.01,1.51-.04,.55-.03,.86-.06,.92-.09,.03,.06,.08,.29,.16,.68,.08,.39,.11,.82,.11,1.28s-.04,.84-.11,1.16c-.07,.32-.13,.51-.16,.57-.06-.03-.37-.06-.92-.09-.55-.03-1.06-.04-1.51-.04h-5.4v9.54c.21-.03,.47-.05,.79-.07,.31-.01,.64-.02,.97-.02h8.15c.21,0,.46,0,.74-.02,.28-.01,.55-.03,.79-.04,.24-.01,.45-.03,.63-.04,.18-.02,.28-.02,.32-.02,.03,.06,.07,.24,.13,.54,.06,.3,.09,.68,.09,1.12s-.03,.8-.09,1.06c-.06,.26-.18,.44-.36,.56-.18,.12-.45,.19-.81,.2-.36,.02-.84,.02-1.44,.02h-10.21c-.24,0-.55,0-.92,.02-.38,.01-.75,.03-1.12,.04-.38,.01-.71,.03-.99,.04-.29,.01-.44,.02-.47,.02,0-.03,0-.13,.02-.32,.01-.18,.03-.39,.04-.63,.01-.24,.03-.5,.04-.76,.01-.27,.02-.52,.02-.76l.04-22.28Z" style="fill:#00aeef;"/><path d="M864.12,364.09c0,.45,.01,.95,.04,1.51,.03,.56,.06,.86,.09,.92-.06,.03-.28,.08-.65,.16-.38,.07-.79,.11-1.24,.11s-.86-.04-1.24-.11c-.38-.08-.59-.13-.65-.16,.03-.06,.06-.37,.09-.92,.03-.55,.04-1.06,.04-1.51v-21.78c0-.21,0-.46-.02-.74-.02-.28-.03-.55-.05-.79-.01-.24-.03-.45-.04-.63-.01-.18-.02-.29-.02-.32,.06-.03,.28-.07,.67-.13,.39-.06,.81-.09,1.26-.09l13.59,18.63v-15.93c0-.45-.02-.95-.07-1.51-.04-.55-.08-.86-.11-.92,.06-.03,.28-.08,.67-.16,.39-.07,.81-.11,1.26-.11s.87,.04,1.26,.11c.39,.08,.62,.13,.68,.16-.03,.06-.07,.37-.11,.92-.04,.56-.07,1.06-.07,1.51v21.78c0,.24,0,.5,.02,.77,.02,.27,.03,.52,.04,.76s.03,.45,.04,.63c.02,.18,.02,.29,.02,.32-.06,.03-.28,.08-.65,.13-.38,.06-.79,.09-1.24,.09v.09l-13.77-18.95v.72l.13,1.58v13.86Z" style="fill:#00aeef;"/><path d="M894.76,343.08h-5.26c-.24,0-.5,0-.76,.02-.27,.02-.53,.03-.77,.04-.24,.02-.45,.03-.63,.04-.18,.02-.29,.02-.32,.02-.03-.06-.07-.24-.13-.54-.06-.3-.09-.67-.09-1.12s.03-.8,.09-1.06c.06-.25,.18-.44,.36-.56,.18-.12,.45-.19,.81-.2,.36-.01,.84-.02,1.44-.02h14.22c.6,0,1.08,0,1.44,.02,.36,.02,.63,.08,.81,.2,.18,.12,.3,.31,.36,.56,.06,.26,.09,.61,.09,1.06s-.03,.83-.09,1.12c-.06,.3-.11,.48-.13,.54-.03,0-.14,0-.32-.02-.18-.01-.39-.03-.63-.04-.24-.01-.5-.03-.79-.04-.29-.01-.53-.02-.74-.02l-5.17,.04c.06,.03,.09,.06,.09,.09s0,.05-.02,.07c-.02,.02-.06,.04-.13,.09-.08,.04-.11,.08-.11,.11l-.04,.04s.03,.06,.09,.09v20.43c0,.24,0,.5,.02,.76,.01,.27,.03,.53,.04,.77,.01,.24,.03,.45,.04,.63s.02,.29,.02,.32c-.06,.03-.29,.08-.7,.13s-.83,.09-1.28,.09-.88-.03-1.28-.09c-.4-.06-.64-.11-.7-.13,0-.03,0-.14,.02-.32s.03-.39,.05-.63c.01-.24,.03-.5,.04-.77,.01-.27,.02-.52,.02-.76l.04-20.97Z" style="fill:#00aeef;"/></g><g><path d="M965.52,303.16c0-1.39,.18-2.64,.55-3.76,.37-1.12,.88-2.09,1.55-2.89,.67-.8,1.46-1.42,2.39-1.87,.92-.44,1.95-.66,3.07-.66,.96,0,1.86,.08,2.68,.23s1.46,.29,1.9,.41c.24,.06,.36,.21,.36,.45,0,.1-.01,.19-.03,.27-.02,.08-.05,.17-.09,.27l-.48,1.48c-.48-.2-1.08-.42-1.79-.65-.71-.23-1.37-.35-1.97-.35-.84,0-1.61,.17-2.29,.51s-1.26,.82-1.75,1.43c-.48,.61-.86,1.36-1.13,2.23s-.41,1.84-.41,2.91,.13,2.03,.41,2.91,.65,1.62,1.13,2.23c.48,.61,1.06,1.09,1.75,1.43,.68,.34,1.45,.51,2.29,.51,.6,0,1.26-.12,1.97-.35s1.31-.45,1.79-.65l.48,1.48c.04,.1,.07,.19,.09,.27,.02,.08,.03,.17,.03,.27,0,.24-.12,.39-.36,.45-.44,.12-1.07,.26-1.9,.41s-1.72,.23-2.68,.23c-1.12,0-2.15-.22-3.07-.66s-1.72-1.06-2.39-1.87-1.19-1.77-1.55-2.89c-.37-1.12-.55-2.38-.55-3.76Z" style="fill:#00aeef;"/><path d="M979.98,303.16c0-1.39,.17-2.64,.51-3.76,.34-1.12,.83-2.09,1.46-2.89,.63-.8,1.4-1.42,2.29-1.87,.89-.44,1.88-.66,2.97-.66s2.07,.22,2.95,.66c.88,.44,1.64,1.06,2.27,1.87,.63,.8,1.12,1.77,1.48,2.89,.35,1.12,.53,2.38,.53,3.76s-.18,2.64-.53,3.76c-.35,1.12-.84,2.09-1.48,2.89-.63,.8-1.39,1.43-2.27,1.87s-1.87,.66-2.95,.66-2.07-.22-2.97-.66-1.66-1.06-2.29-1.87c-.63-.8-1.12-1.77-1.46-2.89-.34-1.12-.51-2.38-.51-3.76Zm2.56,0c0,1.06,.11,2.03,.33,2.91,.22,.87,.54,1.62,.95,2.23,.41,.61,.9,1.09,1.48,1.43,.57,.34,1.21,.51,1.91,.51s1.34-.17,1.91-.51c.57-.34,1.06-.82,1.48-1.43,.41-.61,.73-1.36,.95-2.23,.22-.87,.33-1.84,.33-2.91s-.11-2.03-.33-2.91c-.22-.87-.54-1.62-.95-2.23-.41-.61-.9-1.09-1.48-1.43s-1.21-.51-1.91-.51-1.34,.17-1.91,.51c-.57,.34-1.06,.82-1.48,1.43s-.73,1.36-.95,2.23c-.22,.87-.33,1.84-.33,2.91Z" style="fill:#00aeef;"/><path d="M997.12,296.41c0-.16,0-.37-.02-.62s-.03-.5-.04-.74c-.02-.28-.03-.58-.03-.9h3.58c.6,0,1.2,.09,1.79,.27,.59,.18,1.14,.43,1.66,.74,.51,.31,.98,.69,1.4,1.13,.42,.44,.76,.93,1.02,1.48,.26-.54,.6-1.03,1.02-1.48,.42-.44,.89-.82,1.4-1.13,.51-.31,1.06-.56,1.66-.74,.59-.18,1.19-.27,1.79-.27h3.58c-.02,.32-.04,.62-.06,.9-.02,.24-.03,.49-.03,.74v14.68c0,.16,0,.33,.02,.51,0,.18,.02,.35,.03,.51,.01,.16,.02,.3,.03,.42,0,.12,.02,.19,.02,.21-.04,.02-.2,.05-.47,.09-.27,.04-.56,.06-.86,.06s-.59-.02-.86-.06c-.27-.04-.43-.07-.47-.09,0-.02,0-.09,.01-.21,0-.12,.02-.26,.03-.42,0-.16,.02-.33,.03-.51,0-.18,.01-.35,.01-.51v-14.12h-.87c-.58,0-1.16,.13-1.73,.39s-1.08,.62-1.54,1.07c-.45,.45-.82,.98-1.1,1.58s-.42,1.25-.42,1.93v9.16c0,.16,0,.33,.02,.51,0,.18,.02,.35,.03,.51,0,.16,.02,.3,.03,.42,.01,.12,.02,.19,.02,.21-.04,.02-.2,.05-.47,.09-.27,.04-.56,.06-.86,.06s-.59-.02-.86-.06c-.27-.04-.43-.07-.47-.09,0-.02,0-.09,.01-.21,0-.12,.02-.26,.03-.42,0-.16,.02-.33,.03-.51,0-.18,.01-.35,.01-.51v-9.16c0-.68-.14-1.33-.42-1.93-.28-.6-.65-1.13-1.1-1.58-.45-.45-.96-.81-1.54-1.07s-1.15-.39-1.73-.39h-.99l.12,.48v13.61c0,.16,0,.33,.02,.51,0,.18,.02,.35,.03,.51,0,.16,.02,.3,.03,.42,0,.12,.01,.19,.01,.21-.04,.02-.2,.05-.47,.09s-.56,.06-.86,.06-.59-.02-.86-.06c-.27-.04-.43-.07-.47-.09,0-.02,0-.09,.01-.21,.01-.12,.02-.26,.03-.42,0-.16,.02-.33,.03-.51s.02-.35,.02-.51v-14.03Z" style="fill:#00aeef;"/></g><path d="M953.4,310.73c-.45,0-.9-.03-1.35-.09-.45-.06-.71-.11-.76-.13-.03-.06-.08-.32-.13-.77-.06-.45-.09-.9-.09-1.35s.03-.9,.09-1.35c.06-.45,.1-.71,.13-.77,.06-.03,.32-.07,.76-.13,.45-.06,.9-.09,1.35-.09s.9,.03,1.35,.09c.45,.06,.71,.11,.77,.13,.03,.06,.07,.32,.13,.77,.06,.45,.09,.9,.09,1.35s-.03,.9-.09,1.35c-.06,.45-.11,.71-.13,.77-.06,.03-.32,.07-.77,.13-.45,.06-.9,.09-1.35,.09Z" style="fill:#00aeef;"/></svg>